<svg data-v-73fdaaa2="" version="1.0" xmlns="http://www.w3.org/2000/svg" xmlns:xlink="http://www.w3.org/1999/xlink" width="100%" height="100%" viewBox="0 0 340.000000 250.000000" preserveAspectRatio="xMidYMid meet" color-interpolation-filters="sRGB" class="el-tooltip" style="margin: auto;"><rect data-v-73fdaaa2="" x="0" y="0" width="100%" height="100%" fill="#fff" fill-opacity="0"></rect> <rect data-v-73fdaaa2="" x="0" y="0" width="100%" height="100%" fill="url(#watermark)" fill-opacity="1" class="watermarklayer"></rect> <g data-v-73fdaaa2="" fill="#0064d2" class="icon-svg-group iconsvg" transform="translate(64.22653198242188,94.99938201904297)"><g class="iconsvg-imagesvg" transform="translate(0,0)"><rect fill="#0064d2" fill-opacity="0" stroke-width="2" x="0" y="0" width="60" height="60"></rect> <svg filter="url(#colors4995397611)" x="0" y="0" width="60" height="60" class="imagesvg-svg"><svg xmlns="http://www.w3.org/2000/svg" viewBox="0 0 64.01 64.01"><g><g><g><path d="M63.42 52.09L41.91 30.57l19.83-19.83.5-.5a6 6 0 0 0-8.44-8.47l-.51.52L33.43 22.1 11.92.59a2 2 0 0 0-2.83 0l-8.5 8.5a2 2 0 0 0 0 2.83L22.1 33.43 7.58 48a2 2 0 0 0-.16.24l-.1.1a1.19 1.19 0 0 0-.19.2L.15 62.43a1.19 1.19 0 0 0-.07.23.24.24 0 0 0 0 .08A1 1 0 0 0 0 63a1.1 1.1 0 0 0 0 .18 1 1 0 0 0 .06.18s0 .1.05.15a.47.47 0 0 0 .13.15l.15.14h.05a1.21 1.21 0 0 0 .14 0l.29.2h.19a.59.59 0 0 0 .23 0h.08a1.55 1.55 0 0 0 .23-.08l13.91-6.94a1 1 0 0 0 .38-.4s.12-.07.17-.12l14.51-14.55 21.52 21.51a2 2 0 0 0 2.83 0l8.5-8.5a2 2 0 0 0 0-2.83zm-13-44.17l5.64 5.65-1.52 1.52-5.62-5.64zm4.78-4.74a4 4 0 0 1 5.63 5.64l-2.32 2.32-.94.95-5.65-5.64zM2 10.5L10.5 2l5 5-2.19 2.25a1.05 1.05 0 0 0 0 1.47 1 1 0 0 0 1.47 0L17 8.5l2.53 2.5-2.22 2.22a1.05 1.05 0 0 0 0 1.47 1 1 0 0 0 1.47 0L21 12.5l2.53 2.5-2.22 2.22a1.05 1.05 0 0 0 0 1.47 1 1 0 0 0 1.47 0L25 16.5l2.53 2.5-2.22 2.22a1.05 1.05 0 0 0 0 1.47 1 1 0 0 0 1.47 0L29 20.5l3 3-8.48 8.5zm3.3 46.28l2 2-3.92 2zm3.93 1l-2.95-3 2-4.08 5 5zM15 54.63L9.38 49l38.07-38.08 5.64 5.65zM53.5 62L32 40.49l8.5-8.5 3 3-2.22 2.22a1.05 1.05 0 0 0 0 1.47 1 1 0 0 0 1.47 0L45 36.5l2.53 2.5-2.22 2.22a1.05 1.05 0 0 0 0 1.47 1 1 0 0 0 1.47 0L49 40.5l2.53 2.5-2.22 2.22a1.05 1.05 0 0 0 0 1.47 1 1 0 0 0 1.47 0L53 44.5l2.53 2.5-2.22 2.22a1.05 1.05 0 0 0 0 1.47 1 1 0 0 0 1.47 0L57 48.5l5 5z" fill="#000000" fill-rule="evenodd"></path></g></g></g></svg></svg> <defs><filter id="colors4995397611"><feColorMatrix type="matrix" values="0 0 0 0 0  0 0 0 0 0.390625  0 0 0 0 0.8203125  0 0 0 1 0"></feColorMatrix></filter></defs></g> <g transform="translate(67.00345611572266,5.690774917602539)"><g class="tp-name iconsvg-namesvg" transform="translate(0,0)"><g><path transform="translate(-3.59375,30.546875)" d="M27.50-0.16L27.50-0.16L27.50-17.81L9.61-17.81L9.61-23.75L27.34-23.75L27.34-29.30L3.59-29.30L3.59-12.19L21.48-12.19L21.48-5.70L3.59-5.70L3.59-0.16L27.50-0.16L27.50-0.16ZM33.91-21.41L33.91-21.41L33.91-15.78L36.80-15.78L36.80-0.16L42.81-0.16L42.81-21.41L33.91-21.41L33.91-21.41ZM42.81-24.53L42.81-24.53L42.81-30.55L36.80-30.55L36.80-24.53L42.81-24.53L42.81-24.53ZM79.14-0.16L79.14-0.16L79.14-21.41L52.27-21.41L52.27-0.16L58.05-0.16L58.05-15.78L62.81-15.78L62.81-0.16L68.59-0.16L68.59-15.78L73.36-15.78L73.36-0.16L79.14-0.16L79.14-0.16ZM106.88-0.16L106.88-0.16L106.88-21.41L86.25-21.41L86.25 3.87L92.27 3.87L92.27-0.16L106.88-0.16L106.88-0.16ZM92.27-5.78L92.27-5.78L92.27-15.78L100.94-15.78L100.94-5.78L92.27-5.78L92.27-5.78ZM120.39-0.16L120.39-0.16L120.39-26.48L114.45-26.48L114.45-0.16L120.39-0.16L120.39-0.16ZM129.06-0.16L129.06-0.16L148.13-0.16L148.13-5.78L133.52-5.78L133.52-8.44L148.13-8.44L148.13-21.41L127.50-21.41L127.50-0.16L129.06-0.16L129.06-0.16ZM134.06-13.83L134.06-13.83L133.52-13.83L133.52-15.94L142.19-15.94L142.19-13.83L134.06-13.83L134.06-13.83Z"></path></g> <!----> <!----> <!----> <!----> <!----> <!----> <!----></g> <g class="tp-slogan iconsvg-slogansvg" transform="translate(0,37.55281066894531)"><!----> <rect x="0" height="1" y="5.03000020980835" width="33.64500427246094"></rect> <rect height="1" y="5.03000020980835" width="33.64500427246094" x="110.89500427246094"></rect> <g transform="translate(36.64500427246094,0)"><path transform="translate(-0.1875,9.84375)" d="M5.34-9.75L5.34-9.75L5.34-9.75Q5.48-9.70 5.67-9.66L5.67-9.66L5.67-9.66Q6.66-9.52 6.61-9.38L6.61-9.38L6.61-9.38Q6.61-9.33 6.52-9.23L6.52-9.23L6.52-9.23Q6.19-8.86 5.72-7.88L5.72-7.88L8.91-7.88L8.91-7.88Q10.78-7.88 11.34-7.97L11.34-7.97L11.34-6.89L11.34-6.89Q10.92-6.94 8.91-6.98L8.91-6.98L5.34-6.98L5.34-6.98Q4.83-6.09 3.84-4.73L3.84-4.73L3.84-4.73Q3.70-4.55 3.66-4.45L3.66-4.45L3.66-0.14L3.66-0.14Q3.70 1.22 3.70 1.17L3.70 1.17L2.58 1.17L2.58 1.17Q2.67 0.66 2.67-0.23L2.67-0.23L2.67-3.42L2.67-3.42Q1.59-2.34 1.08-1.97L1.08-1.97L1.08-1.97Q0.61-2.48 0.19-2.72L0.19-2.72L0.19-2.72Q1.50-3.52 2.67-4.64L2.67-4.64L2.63-5.44L2.63-5.44Q2.95-5.44 3.28-5.39L3.28-5.39L3.28-5.39Q3.75-5.91 4.31-6.98L4.31-6.98L3.28-6.98L3.28-6.98Q2.77-6.98 1.88-6.94L1.88-6.94L1.88-6.94Q1.27-6.94 1.03-6.94L1.03-6.94L1.03-8.02L1.03-8.02Q2.11-7.92 3.28-7.92L3.28-7.92L4.73-7.92L4.73-7.92Q5.16-8.77 5.34-9.75ZM6.89-6.19L6.89-6.19L6.89-6.19Q7.92-6.23 8.06-6.09L8.06-6.09L8.06-6.09Q8.06-6 8.02-5.81L8.02-5.81L8.02-5.81Q7.92-5.58 7.92-5.25L7.92-5.25L7.92-4.13L8.91-4.13L8.91-4.13Q9.47-4.13 10.78-4.17L10.78-4.17L10.78-3.14L10.78-3.14Q10.78-3.14 10.59-3.14L10.59-3.14L10.59-3.14Q9.28-3.23 8.91-3.23L8.91-3.23L7.92-3.23L7.92-0.33L9.09-0.33L9.09-0.33Q10.78-0.38 11.20-0.42L11.20-0.42L11.20 0.52L11.20 0.52Q11.06 0.52 10.55 0.52L10.55 0.52L10.55 0.52Q9.61 0.47 9.09 0.47L9.09 0.47L5.58 0.47L5.58 0.47Q4.69 0.47 3.94 0.56L3.94 0.56L3.94-0.42L3.94-0.42Q4.27-0.38 5.53-0.38L5.53-0.38L5.53-0.38Q6.42-0.33 6.98-0.33L6.98-0.33L6.98-3.23L6.98-3.23Q5.20-3.23 4.50-3.14L4.50-3.14L4.50-4.17L4.50-4.17Q5.63-4.13 6.98-4.13L6.98-4.13L6.98-4.13Q6.98-5.39 6.89-6.19ZM18.33-9.56L18.33-9.56L18.33-9.56Q18.70-9.52 19.27-9.52L19.27-9.52L19.27-9.52Q19.73-9.47 19.73-9.42L19.73-9.42L19.73-9.42Q19.73-9.38 19.69-9.33L19.69-9.33L19.69-9.33Q19.50-9.09 19.45-8.67L19.45-8.67L19.45-8.67Q19.36-8.30 19.41-6.75L19.41-6.75L21.33-7.08L21.33-7.08Q21.75-7.17 22.27-7.31L22.27-7.31L22.27-7.31Q22.64-7.41 22.59-7.36L22.59-7.36L22.78-6.38L22.78-6.38Q22.73-6.38 22.64-6.38L22.64-6.38L22.64-6.38Q22.22-6.38 21.42-6.23L21.42-6.23L19.41-5.91L19.41-5.91Q19.41-5.16 19.41-4.50L19.41-4.50L21.61-4.92L21.61-4.92Q22.27-5.02 22.78-5.20L22.78-5.20L22.78-5.20Q22.88-5.25 22.92-5.25L22.92-5.25L23.11-4.17L23.11-4.17Q23.06-4.17 22.97-4.17L22.97-4.17L22.97-4.17Q22.50-4.22 21.70-4.08L21.70-4.08L19.55-3.70L19.55-3.70Q19.78-2.72 20.11-1.97L20.11-1.97L20.11-1.97Q20.86-2.67 21.42-3.66L21.42-3.66L21.42-3.66Q22.59-3 22.59-2.86L22.59-2.86L22.59-2.86Q22.59-2.77 22.41-2.67L22.41-2.67L22.41-2.67Q21.61-2.25 20.53-1.17L20.53-1.17L20.53-1.17Q21.33-0.09 21.89 0L21.89 0L21.89 0Q22.13-0.42 22.13-1.22L22.13-1.22L22.13-1.22Q22.59-0.80 23.30-0.52L23.30-0.52L23.30-0.52Q23.25-0.42 23.20-0.28L23.20-0.28L23.20-0.28Q22.78 1.22 22.31 1.22L22.31 1.22L22.31 1.22Q21.28 1.13 19.78-0.56L19.78-0.56L19.78-0.56Q18.33 0.38 17.16 0.98L17.16 0.98L17.16 0.98Q17.02 1.03 16.97 1.08L16.97 1.08L15.89 0.23L15.89 0.23Q17.67-0.09 19.36-1.31L19.36-1.31L19.36-1.31Q18.89-2.30 18.66-3.52L18.66-3.52L18.14-3.38L18.14-3.38Q17.39-3.23 16.92-3.09L16.92-3.09L16.92-3.09Q16.83-3 16.78-3.05L16.78-3.05L16.64-4.13L16.64-4.13Q16.64-4.13 16.73-4.13L16.73-4.13L16.73-4.13Q17.16-4.08 17.91-4.22L17.91-4.22L18.56-4.36L18.56-4.36Q18.56-4.55 18.52-4.88L18.52-4.88L18.52-4.88Q18.47-5.44 18.47-5.72L18.47-5.72L17.81-5.58L17.81-5.58Q17.30-5.48 16.88-5.34L16.88-5.34L16.88-5.34Q16.73-5.25 16.73-5.30L16.73-5.30L16.59-6.23L16.59-6.23Q16.55-6.28 17.02-6.33L17.02-6.33L17.02-6.33Q17.53-6.38 17.72-6.42L17.72-6.42L18.47-6.56L18.47-6.56Q18.47-7.45 18.38-8.77L18.38-8.77L18.38-8.77Q18.33-9.28 18.33-9.56ZM20.02-8.77L20.91-9.33L20.91-9.33Q21.52-8.77 22.03-7.88L22.03-7.88L20.95-7.31L20.95-7.31Q20.67-8.16 20.02-8.77L20.02-8.77ZM17.06-1.64L17.06-1.64L17.02-0.56L17.02-0.56Q16.50-0.47 14.53 0L14.53 0L14.53 0Q13.27 0.23 12.94 0.33L12.94 0.33L12.61-0.89L12.61-0.89Q14.16-0.89 17.06-1.64ZM14.11-2.95L14.11-2.95L14.11-2.95Q15.70-3.23 16.64-3.47L16.64-3.47L16.45-2.48L16.45-2.48Q16.17-2.44 14.53-2.16L14.53-2.16L14.53-2.16Q13.31-1.92 13.13-1.92L13.13-1.92L12.80-2.95L12.80-2.95Q13.64-3.52 14.81-5.25L14.81-5.25L14.81-5.25Q14.44-5.16 13.45-4.97L13.45-4.97L13.45-4.97Q13.03-4.88 12.89-4.83L12.89-4.83L12.61-5.91L12.61-5.91Q13.59-6.70 14.58-9.52L14.58-9.52L14.58-9.52Q14.63-9.52 14.77-9.47L14.77-9.47L14.77-9.47Q15.98-9.09 15.89-8.91L15.89-8.91L15.89-8.91Q15.89-8.81 15.75-8.77L15.75-8.77L15.75-8.77Q15.47-8.63 15.28-8.30L15.28-8.30L15.28-8.30Q15.09-7.97 14.67-7.31L14.67-7.31L14.67-7.31Q14.11-6.38 13.69-5.77L13.69-5.77L15.23-6.05L15.23-6.05Q15.80-6.80 15.98-7.59L15.98-7.59L15.98-7.59Q16.17-7.50 16.45-7.41L16.45-7.41L16.45-7.41Q17.34-7.03 17.20-6.94L17.20-6.94L17.20-6.94Q17.20-6.89 17.11-6.84L17.11-6.84L17.11-6.84Q16.13-6.05 14.11-2.95ZM28.83-9.66L28.83-9.66L28.83-9.66Q30.09-9.56 30.05-9.47L30.05-9.47L30.05-9.47Q30.05-9.42 30-9.28L30-9.28L30-9.28Q29.91-9.09 29.86-8.95L29.86-8.95L29.86-8.95Q29.86-8.63 29.86-8.20L29.86-8.20L30.33-8.20L30.33-8.20Q31.13-8.20 31.92-8.30L31.92-8.30L31.92-7.36L31.92-7.36Q31.59-7.36 30.70-7.41L30.70-7.41L30.70-7.41Q30.38-7.41 30.33-7.41L30.33-7.41L29.86-7.41L29.86-6.14L30.70-6.14L30.70-6.14Q32.11-7.17 33.19-9.14L33.19-9.14L33.19-9.14Q34.31-8.34 34.22-8.30L34.22-8.30L34.22-8.30Q34.22-8.20 34.03-8.11L34.03-8.11L34.03-8.11Q33.75-7.92 33.61-7.78L33.61-7.78L33.61-7.78Q32.81-6.98 31.97-6.19L31.97-6.19L33.38-6.19L33.38-6.19Q34.64-6.23 35.39-6.28L35.39-6.28L35.39-5.25L35.39-5.25Q34.50-5.30 33.42-5.34L33.42-5.34L31.08-5.34L31.08-5.34Q30.98-5.30 30.80-5.11L30.80-5.11L30.80-5.11Q30-4.45 29.72-4.22L29.72-4.22L32.72-4.22L32.72-4.22Q33.80-4.27 34.45-4.31L34.45-4.31L34.45-3.33L34.45-3.33Q33.84-3.38 32.67-3.42L32.67-3.42L30.80-3.42L30.80-3.42Q30.56-3.05 30.09-2.25L30.09-2.25L32.02-2.25L32.02-2.25Q33.05-2.25 33.70-2.34L33.70-2.34L33.70-2.34Q33.75-2.34 33.75-2.30L33.75-2.30L33.75-2.30Q33.70-2.16 33.66-1.83L33.66-1.83L33.66-1.83Q33.19 0.28 32.77 0.56L32.77 0.56L32.77 0.56Q32.20 1.13 30.42 1.13L30.42 1.13L30.42 1.13Q30.28 0.33 29.72 0L29.72 0L29.72 0Q31.27 0.09 31.83-0.05L31.83-0.05L31.83-0.05Q32.39-0.33 32.53-1.55L32.53-1.55L32.53-1.55Q29.77-1.50 29.11-1.27L29.11-1.27L28.73-2.25L28.73-2.25Q29.16-2.34 29.25-2.53L29.25-2.53L29.25-2.53Q29.53-2.72 29.77-3.42L29.77-3.42L28.73-3.42L28.73-3.42Q26.34-1.73 25.36-1.22L25.36-1.22L25.36-1.22Q25.22-1.69 24.61-2.11L24.61-2.11L24.61-2.11Q26.86-2.95 29.63-5.16L29.63-5.16L29.63-5.16Q29.81-5.30 29.86-5.34L29.86-5.34L26.95-5.34L26.95-5.34Q25.92-5.34 24.89-5.25L24.89-5.25L24.89-6.23L24.89-6.23Q26.20-6.14 26.95-6.14L26.95-6.14L28.92-6.14L28.92-7.36L28.08-7.36L28.08-7.36Q27-7.31 26.25-7.27L26.25-7.27L26.25-8.30L26.25-8.30Q26.91-8.25 28.03-8.20L28.03-8.20L28.92-8.20L28.92-8.20Q28.92-9.33 28.83-9.66ZM43.22-9.66L43.22-9.66L43.22-9.66Q44.63-9.56 44.58-9.47L44.58-9.47L44.58-9.47Q44.58-9.42 44.53-9.23L44.53-9.23L44.53-9.23Q44.44-9 44.44-8.81L44.44-8.81L44.44-8.81Q44.39-8.44 44.44-7.78L44.44-7.78L44.44-7.78Q44.44-7.31 44.44-7.03L44.44-7.03L45.14-7.03L45.14-7.03Q46.27-7.08 47.16-7.13L47.16-7.13L47.16-6.09L47.16-6.09Q46.36-6.14 45.09-6.19L45.09-6.19L44.44-6.19L44.44-6.19Q44.58-1.73 46.27-0.33L46.27-0.33L46.27-0.33Q46.45-0.38 46.59-1.64L46.59-1.64L46.59-1.64Q47.16-1.08 47.58-0.89L47.58-0.89L47.58-0.89Q47.11 0.98 46.45 0.98L46.45 0.98L46.45 0.98Q43.83-0.14 43.50-6.19L43.50-6.19L41.67-6.19L41.67-6.19Q40.73-6.19 39.66-6.09L39.66-6.09L39.66-7.13L39.66-7.13Q40.27-7.03 41.67-7.03L41.67-7.03L43.45-7.03L43.45-7.03Q43.45-7.22 43.41-7.73L43.41-7.73L43.41-7.73Q43.41-9.42 43.22-9.66ZM44.95-8.72L45.94-9.09L45.94-9.09Q45.98-9.05 46.08-8.91L46.08-8.91L46.08-8.91Q46.64-8.20 46.73-7.92L46.73-7.92L45.66-7.50L45.66-7.50Q45.38-8.20 44.95-8.72L44.95-8.72ZM37.08-8.44L38.06-8.91L38.06-8.91Q38.95-7.83 39.38-7.17L39.38-7.17L38.30-6.56L38.30-6.56Q37.73-7.64 37.08-8.44L37.08-8.44ZM38.77-5.58L38.77-5.58L38.77-5.58Q38.77-5.44 38.72-4.73L38.72-4.73L38.72-4.73Q38.72-4.08 38.67-3.94L38.67-3.94L38.63-0.75L38.63-0.75Q38.72-0.89 38.91-1.13L38.91-1.13L38.91-1.13Q39.38-1.69 39.70-2.16L39.70-2.16L40.22-1.22L40.22-1.22Q38.67 0.23 38.11 0.94L38.11 0.94L37.41 0.09L37.41 0.09Q37.73-0.19 37.73-0.89L37.73-0.89L37.78-4.69L37.78-4.69Q36.94-4.69 36.33-4.59L36.33-4.59L36.33-5.67L36.33-5.67Q36.98-5.58 38.72-5.67L38.72-5.67L38.72-5.67Q38.81-5.67 38.77-5.58ZM43.08-4.83L43.08-4.83L43.08-3.84L43.08-3.84Q42.66-3.84 42.19-3.84L42.19-3.84L42.19-1.13L42.19-1.13Q42.66-1.17 43.78-1.45L43.78-1.45L43.73-0.52L43.73-0.52Q42.23-0.14 40.27 0.19L40.27 0.19L40.08-0.80L40.08-0.80Q40.22-0.80 40.50-0.84L40.50-0.84L40.50-0.84Q41.16-0.89 41.30-0.94L41.30-0.94L41.30-3.84L41.16-3.84L41.16-3.84Q40.41-3.84 40.08-3.80L40.08-3.80L40.08-4.78L40.08-4.78Q40.27-4.78 40.83-4.73L40.83-4.73L40.83-4.73Q41.30-4.73 41.44-4.73L41.44-4.73L41.72-4.73L41.72-4.73Q42.70-4.73 43.08-4.83ZM57.80-9.23L57.80-9.23L57.80-9.23Q57.84-9.14 57.98-8.95L57.98-8.95L57.98-8.95Q58.55-8.11 58.45-8.11L58.45-8.11L58.45-8.11Q57.19-8.11 53.72-7.78L53.72-7.78L53.72-7.78Q54.42-7.50 54.56-7.36L54.56-7.36L54.56-7.36Q54.56-7.31 54.28-7.22L54.28-7.22L54.28-7.22Q53.86-7.08 53.63-6.89L53.63-6.89L53.63-6.89Q53.34-6.70 52.55-6.19L52.55-6.19L52.55-6.19Q52.03-5.86 51.70-5.67L51.70-5.67L54.80-5.86L54.80-5.86Q55.92-6.70 56.44-7.27L56.44-7.27L56.44-7.27Q57.33-6.70 57.47-6.52L57.47-6.52L57.47-6.52Q57.47-6.47 57.28-6.38L57.28-6.38L57.28-6.38Q56.86-6.19 56.48-5.95L56.48-5.95L56.48-5.95Q56.44-5.91 56.30-5.81L56.30-5.81L56.30-5.81Q53.91-4.27 51.98-3.52L51.98-3.52L56.81-3.70L56.81-3.70Q55.78-4.41 55.73-4.41L55.73-4.41L56.48-5.11L56.48-5.11Q58.17-3.84 59.02-3L59.02-3L58.22-2.25L58.22-2.25Q57.94-2.67 57.52-3L57.52-3L54.75-2.86L54.75-0.14L54.75-0.14Q55.13 0.80 52.88 0.89L52.88 0.89L52.88 0.89Q52.78 0.33 52.59-0.05L52.59-0.05L52.59-0.05Q52.55-0.14 52.55-0.14L52.55-0.14L52.55-0.14Q53.91 0 53.77-0.61L53.77-0.61L53.77-2.81L51.61-2.72L51.61-2.72Q51.47-2.72 51.23-2.67L51.23-2.67L51.23-2.67Q50.48-2.63 50.11-2.53L50.11-2.53L49.78-3.56L49.78-3.56Q50.86-3.61 53.72-5.16L53.72-5.16L53.72-5.16Q51.38-5.02 50.77-4.78L50.77-4.78L50.20-5.77L50.20-5.77Q51.84-6.47 53.16-7.73L53.16-7.73L49.92-7.36L49.92-7.36Q49.83-7.69 49.64-8.06L49.64-8.06L49.64-8.06Q49.50-8.30 49.41-8.44L49.41-8.44L49.41-8.44Q53.77-8.44 57.80-9.23ZM55.78-1.50L56.53-2.20L56.53-2.20Q57.09-1.83 58.55-0.70L58.55-0.70L58.55-0.70Q58.88-0.42 59.02-0.33L59.02-0.33L58.13 0.42L58.13 0.42Q56.91-0.84 55.78-1.50L55.78-1.50ZM51.61-2.20L51.61-2.20L52.50-1.59L52.50-1.59Q50.86 0 50.20 0.47L50.20 0.47L50.20 0.47Q49.83 0 49.27-0.14L49.27-0.14L49.27-0.14Q50.63-1.03 51.61-2.20ZM67.13-9.61L67.97-9.84L67.97-9.84Q68.34-8.95 68.53-8.34L68.53-8.34L67.69-8.11L67.69-8.11Q67.64-8.72 67.13-9.61L67.13-9.61ZM62.39-9.52L62.39-9.52L62.39-9.52Q62.58-9.42 62.91-9.33L62.91-9.33L62.91-9.33Q63.56-9.05 63.56-8.95L63.56-8.95L63.56-8.95Q63.61-8.86 63.28-8.58L63.28-8.58L63.28-8.58Q63.09-8.44 63.05-8.39L63.05-8.39L63.05-8.39Q62.48-7.55 61.55-5.95L61.55-5.95L63.33-6L63.84-7.03L63.84-7.03Q64.03-6.94 64.36-6.75L64.36-6.75L64.36-6.75Q64.92-6.52 64.88-6.42L64.88-6.42L64.88-6.42Q64.88-6.38 64.73-6.28L64.73-6.28L64.73-6.28Q64.45-6.05 64.27-5.77L64.27-5.77L64.27-5.77Q63.84-5.11 62.67-3.56L62.67-3.56L62.67-3.56Q62.25-3.09 62.06-2.81L62.06-2.81L62.06-2.81Q62.39-2.91 63-3L63-3L63-3Q63.98-3.23 64.69-3.38L64.69-3.38L64.50-2.44L64.50-2.44Q62.34-2.16 61.13-1.78L61.13-1.78L60.75-2.86L60.75-2.86Q61.78-3.52 62.91-5.30L62.91-5.30L61.78-5.25L61.78-5.25Q61.31-5.20 60.84-5.06L60.84-5.06L60.47-6.05L60.47-6.05Q61.55-7.13 62.39-9.52ZM71.30-8.02L71.30-8.02L71.30-7.03L71.30-7.03Q70.69-7.13 69.98-7.13L69.98-7.13L66.05-7.13L66.05-7.13Q65.44-7.13 64.69-7.03L64.69-7.03L64.69-8.02L64.69-8.02Q65.34-7.92 66.14-7.92L66.14-7.92L69.98-7.92L69.98-7.92Q70.50-7.92 71.30-8.02ZM64.88-1.36L64.88-1.36L64.78-0.38L64.78-0.38Q62.39-0.05 60.80 0.38L60.80 0.38L60.52-0.56L60.52-0.56Q62.34-0.75 64.88-1.36ZM66.98-7.03L66.98-7.03L66.98-7.03Q67.31-6.80 67.64-6.61L67.64-6.61L67.64-6.61Q67.83-6.52 67.92-6.47L67.92-6.47L67.92-6.47Q67.92-6.42 67.73-6.28L67.73-6.28L67.73-6.28Q66.89-5.58 65.95-4.55L65.95-4.55L69.38-4.69L69.38-4.69Q68.86-5.44 68.53-5.67L68.53-5.67L69.33-6.23L69.33-6.23Q69.42-6.09 69.80-5.67L69.80-5.67L69.80-5.67Q70.97-4.22 71.20-3.89L71.20-3.89L70.27-3.23L70.27-3.23Q70.22-3.56 69.89-3.98L69.89-3.98L68.81-3.98L68.81-0.33L68.81-0.33Q68.77 0.09 69.28 0.05L69.28 0.05L69.75 0.05L69.75 0.05Q70.36 0.19 70.45-1.03L70.45-1.03L70.45-1.03Q70.73-0.66 71.44-0.42L71.44-0.42L71.44-0.42Q71.16 0.98 70.27 0.94L70.27 0.94L68.72 0.94L68.72 0.94Q67.97 0.94 67.97 0.05L67.97 0.05L67.97-3.89L67.13-3.89L67.13-3.89Q67.13-1.50 66.66-0.56L66.66-0.56L66.66-0.56Q66.33 0.33 64.92 1.22L64.92 1.22L64.92 1.22Q64.59 0.94 63.98 0.66L63.98 0.66L63.98 0.66Q63.84 0.56 63.84 0.56L63.84 0.56L63.84 0.56Q65.39 0 65.77-0.80L65.77-0.80L65.77-0.80Q66.23-1.59 66.23-3.80L66.23-3.80L66.23-3.80Q66.19-3.80 66.09-3.80L66.09-3.80L66.09-3.80Q65.77-3.75 65.11-3.61L65.11-3.61L64.73-4.64L64.73-4.64Q65.48-5.02 66.98-7.03Z"></path></g></g></g></g></svg>