<svg id="图层_1" data-name="图层 1" xmlns="http://www.w3.org/2000/svg" viewBox="0 0 600 200"><defs><style>.cls-1,.cls-2{fill:#616161;}.cls-1{fill-opacity:0;}.cls-3,.cls-4{fill:#92c24a;}.cls-4{font-size:48px;font-family:STLiti, STLiti;}</style></defs><title>logo</title><rect class="cls-1" x="29.79" y="10" width="125.17" height="166.9"/><path class="cls-2" d="M40.41,133.36a9.84,9.84,0,0,0,0,12.25,20.23,20.23,0,0,0,2.3,2.69,28.7,28.7,0,0,0,2.77,2.38l.15.11a15.55,15.55,0,0,0,6.86.44,61.05,61.05,0,0,0,9.07-2.42,84.54,84.54,0,0,1,18-3.38c-4.92-1.34-10.56-4.61-15.66-9.45a41.44,41.44,0,0,1-9.26-12.57c-.22,0-.44.11-.65.18-.8.25-1.58.53-2.35.84a46.68,46.68,0,0,0-6.2,3.89A23.8,23.8,0,0,0,40.41,133.36ZM97.29,81.9a95.24,95.24,0,0,1,5.87-14.74c-13.73.1-26.52,1.73-36.63,4.71a56.64,56.64,0,0,0-11.16,4.47L70,85.67s0,0,0,0l0,0,.08,0a15.62,15.62,0,0,0,1.56-.35A126.43,126.43,0,0,1,97.29,81.9Z"/><path class="cls-2" d="M99.19,167.28c-2.31-.2-5.11-.5-8.3-.91s-6.79-.92-10.68-1.63-8.07-1.58-12.42-2.72a114,114,0,0,1-13.4-4.36c-2.25-.92-4.5-1.92-6.69-3.07q-1.64-.87-3.22-1.84c-1.05-.65-2.08-1.34-3.06-2.08a27.72,27.72,0,0,1-2.77-2.38,20.13,20.13,0,0,1-2.31-2.69,9.85,9.85,0,0,1,0-12.25,23.73,23.73,0,0,1,5.08-5.06,46.7,46.7,0,0,1,6.27-3.92c2.19-1.15,4.44-2.15,6.69-3.07,1.46-.6,2.93-1.13,4.4-1.63l.4.46.51.6.52.57c.69.76,1.39,1.5,2.13,2.23a57.45,57.45,0,0,0,4.58,4.12,60,60,0,0,0,5,3.62l1.27.8.08.16,0,.06,0,0v0l0,0,.08.13.31.52.62,1,.69,1a23.87,23.87,0,0,0,1.49,1.9c.13.15.25.31.4.46l.42.43.85.86c.29.28.6.53.91.8l.46.4a5.22,5.22,0,0,0,.47.38,26,26,0,0,0,4,2.55l1.06.53.27.13.27.11.55.22,1.09.44a5.66,5.66,0,0,0,.55.2l.56.18,1.11.35c.18.06.37.1.56.15l.56.14c.76.17,1.5.38,2.26.48l1.14.19.56.09.57.06,1.47.14-.6-1.85-.53-.13-.54-.13-.53-.16-1.05-.31c-.71-.2-1.38-.46-2.06-.7l-.51-.18c-.17-.06-.34-.12-.5-.2l-1-.43-.5-.21a5.12,5.12,0,0,1-.49-.22l-.95-.49L86.9,141l-.22-.13-.23-.14-.9-.55a19.65,19.65,0,0,1-1.73-1.19c-.14-.11-.29-.2-.42-.31l-.4-.34-.8-.67a4.26,4.26,0,0,1-.38-.35l-.37-.37c-.24-.25-.5-.48-.73-.74l-.19-.22.78.34c.23.11.47.2.71.29l.71.27c.94.38,1.91.69,2.87,1s1.94.61,2.92.86,2,.49,3,.71c.49.11,1,.19,1.49.28l.74.14.75.11.34,0-.13-.53c-.07-.27-.15-.63-.25-1-1.79-.47-3.55-1-5.28-1.66-.92-.32-1.82-.71-2.73-1.06s-1.79-.76-2.67-1.19-1.74-.87-2.61-1.31c-.43-.23-.85-.47-1.28-.71l-.63-.36-.61-.38c-.41-.25-.81-.49-1.23-.75l-.36-.23-.9-.58-.16-.1-.08-.05h0l0,0-.3-.2-.6-.41-1.2-.86q-1.61-1.19-3.14-2.48-.69-.58-1.36-1.18c-1.44-1.29-2.82-2.63-4.13-4-.65-.71-1.3-1.43-1.91-2.17l-.29-.35-.17-.2-.45-.55c-.29-.36-.6-.76-.91-1.15l-.11-.15-.06-.07,0,0v0l-.2-.29-.43-.58v0c-.28-.38-.56-.76-.84-1.15l-.8-1.19c-.27-.4-.54-.8-.78-1.21-.5-.82-1-1.63-1.48-2.47L55.92,108l-.66-1.28c-.88-1.71-1.65-3.47-2.39-5.24-.18-.45-.34-.9-.51-1.35s-.34-.9-.49-1.35l-.44-1.37-.22-.68c-.07-.23-.13-.46-.2-.69-.26-.92-.54-1.84-.75-2.78l-.34-1.4-.28-1.41c-.09-.47-.2-.94-.27-1.42l-.22-1.42-.1-.71c0-.14,0-.28-.06-.43.6.41,1.19.78,1.81,1.12,1,.54,1.91,1,2.88,1.43s1.93.82,2.9,1.16,1.94.66,2.9,1,1.93.56,2.88.82,1.91.47,2.86.68a111.08,111.08,0,0,0,11,1.85c3.5.43,6.82.67,9.88.83,2.9.15,5.57.2,8,.2.1-.58.2-1.15.32-1.72-2.41-.27-5.1-.6-8-1s-6.23-.93-9.62-1.57S69.8,89.76,66.19,88.8c-1.79-.49-3.61-1-5.41-1.63a55.15,55.15,0,0,1-5.29-2.09,23.36,23.36,0,0,1-4.69-2.8,10.82,10.82,0,0,1-.92-.84l-.35-.4a4.87,4.87,0,0,1-.36-.47A3,3,0,0,1,48.6,79v-.34a.09.09,0,0,1,0,0v-.07a.19.19,0,0,1,0-.08l0-.1a1.87,1.87,0,0,1,.06-.2,3.86,3.86,0,0,1,.43-.84,5.27,5.27,0,0,1,.36-.47l.35-.4a10.5,10.5,0,0,1,.92-.84,23.34,23.34,0,0,1,4.7-2.8q1.28-.6,2.61-1.11t2.68-1c1.79-.61,3.61-1.14,5.41-1.63,3.6-1,7.15-1.73,10.54-2.37,1.69-.32,3.35-.6,5-.87s3.16-.49,4.66-.71c3-.43,5.75-.76,8.21-1s4.59-.49,6.37-.66l4.11-.38.33,0,.11-.19-.44,0c-1-.06-2.35-.18-4.13-.25-3.56-.16-8.66-.27-14.79,0-3.06.16-6.38.41-9.88.83a108.19,108.19,0,0,0-11,1.85q-2.84.62-5.74,1.5c-1,.3-1.93.61-2.9,1s-1.93.74-2.89,1.17-1.93.9-2.88,1.43A19.91,19.91,0,0,0,48,72.21a14.79,14.79,0,0,0-1.33,1.19,11.21,11.21,0,0,0-1.21,1.47,8.22,8.22,0,0,0-.95,1.86c-.06.18-.12.34-.16.53l-.06.27c0,.09,0,.18-.06.29l0,.33,0,.17a.94.94,0,0,0,0,.14V79a6.72,6.72,0,0,0,.11,1.17c0,.64,0,1.28,0,1.91l.09,1.54c0,.51,0,1,.11,1.54l.15,1.54c0,.25,0,.51.08.77l.11.77.22,1.53c.07.51.18,1,.27,1.52l.29,1.52L46,94.26c.22,1,.51,2,.79,3,.07.25.14.5.21.74l.24.73.49,1.47c.16.49.36,1,.54,1.45s.36,1,.55,1.44l.6,1.42c.2.48.4.95.63,1.41.45.93.88,1.86,1.38,2.77l.73,1.36.78,1.33c.51.9,1.07,1.76,1.63,2.62.27.43.57.85.87,1.27l.88,1.24q-1.64.52-3.31,1.13a70.44,70.44,0,0,0-7.16,3c-1.19.6-2.36,1.23-3.53,1.91a39.39,39.39,0,0,0-3.42,2.26,31.07,31.07,0,0,0-3.23,2.69,22.56,22.56,0,0,0-2.86,3.27,16.6,16.6,0,0,0-2.14,4c-.13.37-.26.73-.35,1.12l-.15.58-.11.58a11.78,11.78,0,0,0-.17,1.25,5.16,5.16,0,0,0,0,.53l0,.58a13.82,13.82,0,0,0,.84,4.64,16.63,16.63,0,0,0,.95,2.11,18.91,18.91,0,0,0,1.19,1.91,22.46,22.46,0,0,0,2.86,3.28,32.85,32.85,0,0,0,3.23,2.7,47.46,47.46,0,0,0,7,4.16q1.79.88,3.58,1.64c1.19.51,2.4,1,3.59,1.41a102.66,102.66,0,0,0,14,3.93c4.52.94,8.83,1.58,12.82,2s7.65.68,10.9.8,6.08.12,8.41.08,4.16-.13,5.4-.18l1.91-.12-1.91-.14C103.32,167.63,101.5,167.48,99.19,167.28Z"/><path class="cls-3" d="M135.94,138.29c-.52-11.92-3.6-23.37-6.23-34.12-4.29-17.52-4.24-30.58-3-40s4-15.82,6-21.46c-10.4,5.86-18.15,15.23-23.48,25.24a96.9,96.9,0,0,0-9.85,30.53,112.47,112.47,0,0,0-.2,34.44,79.91,79.91,0,0,0,5.21,17.79c3.79,9.14,10.41,19.78,20.31,25.61-.33-.86-.74-1.93-1.19-3.18-.67-1.86-1.45-4.14-2.28-6.78s-1.7-5.66-2.55-9-1.69-7-2.44-10.89-1.43-8.06-2-12.39c-.27-2.17-.5-4.38-.71-6.62s-.36-4.52-.47-6.82c0-.57-.06-1.15-.08-1.73s0-1.16-.06-1.74c0-.29,0-.58,0-.87s0-.58,0-.87c0-.58,0-1.16,0-1.75s0-1.17,0-1.75v-1.75c0-1.17,0-2.34.08-3.5.15-4.67.5-9.32,1.05-13.82s1.31-8.88,2.22-13a116.4,116.4,0,0,1,3.15-11.48c1.17-3.51,2.42-6.68,3.67-9.47l.94-2,.93-1.87c.15-.3.3-.61.45-.89l.46-.85.88-1.6c.28-.51.58-1,.85-1.45.14-.23.27-.46.4-.68s.27-.43.4-.64l.76-1.19.36-.55.35-.51L131,44.87c.36-.49.67-.89.92-1.22l.72-.94-.7,1c-.24.35-.55.77-.9,1.28s-.74,1.13-1.18,1.81l-.33.53-.35.57-.74,1.23-.4.66c-.14.23-.26.47-.4.71L126.8,52c-.28.52-.56,1.08-.85,1.65l-.44.86c-.15.29-.29.6-.44.91l-.89,1.91q-.45,1-.89,2.06c-1.19,2.84-2.37,6-3.45,9.56A117.06,117.06,0,0,0,117,80.39c-.82,4.09-1.47,8.39-1.93,12.82s-.71,9-.77,13.54c0,1.14,0,2.28,0,3.42,0,.57,0,1.14,0,1.7s0,1.14,0,1.7l.06,1.7c0,.28,0,.56,0,.85s0,.56,0,.85c0,.56.06,1.12.09,1.68s.07,1.12.11,1.68c.15,2.23.35,4.44.58,6.61s.5,4.3.8,6.4c.6,4.18,1.32,8.17,2.12,11.92s1.66,7.23,2.54,10.41,1.76,6,2.6,8.54,1.62,4.65,2.28,6.39,1.22,3.08,1.59,4c.19.45.34.8.43,1l.05.12a71.67,71.67,0,0,0,8.31-37.39Z"/><path class="cls-3" d="M154.07,46.15A61.87,61.87,0,0,0,147.8,26.7c-3.42-6.41-8.33-12.34-15-16.08a59.43,59.43,0,0,1,3.8,13.67c.8,6,.82,14.34-1.92,25.5-1.67,6.85-3.63,14.14-4,21.73A45.73,45.73,0,0,0,136,95.34l0-.08.28-.64c.24-.57.6-1.42,1-2.53s.92-2.47,1.45-4.07,1.1-3.42,1.65-5.44,1.11-4.24,1.62-6.63,1-4.93,1.35-7.59c.2-1.33.36-2.69.51-4.07s.27-2.78.37-4.21c0-.35,0-.71.07-1.07s0-.71.06-1.07c0-.18,0-.36,0-.54s0-.36,0-.54c0-.36,0-.72,0-1.08s0-.72,0-1.08,0-.72,0-1.09V51.44c0-2.9-.2-5.8-.49-8.62s-.71-5.57-1.23-8.17-1.15-5-1.84-7.29a64.38,64.38,0,0,0-2.21-6.08c-.2-.45-.38-.89-.57-1.31s-.38-.82-.57-1.22c-.09-.2-.18-.4-.28-.58s-.18-.38-.27-.55c-.18-.36-.36-.72-.54-1.05l-.53-1-.25-.45-.25-.42-.47-.78-.22-.37-.21-.33-.75-1.15c-.22-.33-.42-.6-.57-.81l-.45-.63.46.6.58.78c.23.31.48.69.77,1.1l.22.32.23.35.49.76.25.4.26.44.55.92c.19.32.37.67.56,1l.29.54c.1.18.2.38.29.57l.6,1.19c.2.4.4.85.6,1.29a64.5,64.5,0,0,1,2.34,6,73.8,73.8,0,0,1,2,7.32c.58,2.62,1.06,5.4,1.42,8.27s.57,5.83.67,8.8c0,.74,0,1.49,0,2.23v2.23c0,.37,0,.74,0,1.11v.55c0,.18,0,.37,0,.55,0,.37,0,.74,0,1.11s0,.73-.05,1.1c-.07,1.47-.18,2.92-.3,4.35s-.28,2.84-.45,4.22c-.34,2.76-.77,5.41-1.25,7.89s-1,4.81-1.56,6.93-1.1,4-1.62,5.73-1,3.13-1.45,4.32c-.29.8-.54,1.48-.76,2,6.3-3.72,10.52-10.49,12.93-16.31a51.49,51.49,0,0,0,3.32-11.33A72.25,72.25,0,0,0,154.07,46.15Z"/><path class="cls-2" d="M193,127.69V33.12H174.44V25.88h64.31v7.23H220.17v94.58Zm78.89-14v16.91H249V106.66h16a6.57,6.57,0,0,1,4.9,2.06h0a6.85,6.85,0,0,1,2,5ZM345.9,78v49.74H282.14v-7.12H322V80.51h0a2.07,2.07,0,0,0-2.34-2.34h-37.5V25.88H345.9v7.23H306.18V70.95H339a6.57,6.57,0,0,1,4.9,2.06h0a6.85,6.85,0,0,1,2,5Zm52.63-6.34V25.88h22.7V127.69h-22.7v-49H379.83v49h-23.7V25.88h23.7V71.61ZM496,127.69H431.46V25.88h57.64a6.57,6.57,0,0,1,4.9,2.06h0a6.85,6.85,0,0,1,2,5h0ZM455.83,33.23v87.23h15.91V35.56h0a2.07,2.07,0,0,0-2.34-2.34H455.83Zm75,60v34.49H506.23V26h57.08a6.57,6.57,0,0,1,4.9,2.06h0a6.85,6.85,0,0,1,2,5h0V93.2Zm0-59.86V85.74h16V35.67h0a2.07,2.07,0,0,0-2.34-2.34H530.82Z"/><polygon class="cls-3" points="174.43 157.63 284 158 284 163 174.43 162.63 174.43 157.63"/><path class="cls-3" d="M371.91,161.08h0m53.32-30.58h0m26.45.14h0m70.54-.39h0m36,.39h0"/><text class="cls-4" transform="translate(288.12 173.54)">茶叶贸易商城</text></svg>