<svg id="图层_1" data-name="图层 1" xmlns="http://www.w3.org/2000/svg" viewBox="0 0 600 200"><defs><style>.cls-1,.cls-2,.cls-3{fill:#0064d2;}.cls-1{fill-opacity:0;}.cls-3{font-size:50px;font-family:DengXian-Bold, DengXian;font-weight:700;}</style></defs><title>logo</title><rect class="cls-1" x="17.01" y="19.73" width="160.53" height="160.53"/><path class="cls-2" d="M176.06,150.37l-53.95-54,49.73-49.73,1.25-1.25a15,15,0,0,0-21.17-21.24l-1.28,1.3L100.85,75.16,46.9,21.21a5,5,0,0,0-7.09,0h0L18.49,42.53a5,5,0,0,0,0,7.09h0l53.95,53.95L36,140.11a5,5,0,0,0-.4.6l-.25.25a3,3,0,0,0-.48.5L17.39,176.3a3,3,0,0,0-.18.58.6.6,0,0,0,0,.2,2.51,2.51,0,0,0-.2.65,2.76,2.76,0,0,0,0,.45,2.51,2.51,0,0,0,.15.45.62.62,0,0,0,.13.38,1.18,1.18,0,0,0,.33.38l.38.35h.48l.73.5h.48a1.48,1.48,0,0,0,.58,0h.2A3.89,3.89,0,0,0,21,180l34.89-17.4a2.51,2.51,0,0,0,1-1,2.83,2.83,0,0,0,.43-.3l36.39-36.49,54,53.95a5,5,0,0,0,7.09,0h0l21.32-21.32a5,5,0,0,0,0-7.09ZM143.46,39.6,157.6,53.76l-3.81,3.81L139.7,43.43Zm12-11.89a10,10,0,0,1,14.12,14.14l-5.82,5.82-2.36,2.38L147.22,35.91ZM22,46.07,43.34,24.75,55.88,37.29l-5.49,5.64a2.63,2.63,0,0,0,0,3.69,2.51,2.51,0,0,0,3.54.14l.14-.14L59.64,41,66,47.32l-5.57,5.57a2.63,2.63,0,0,0,0,3.69,2.51,2.51,0,0,0,3.54.14l.14-.14,5.57-5.49L76,57.35l-5.57,5.57a2.63,2.63,0,0,0,0,3.69,2.51,2.51,0,0,0,3.54.14l.14-.14,5.57-5.49,6.35,6.27L80.48,73a2.63,2.63,0,0,0,0,3.69,2.51,2.51,0,0,0,3.54.14l.14-.14,5.57-5.49,7.52,7.52L76,100ZM30.3,162.13l5,5-9.83,5Zm9.86,2.51-7.4-7.52,5-10.23,12.54,12.54Zm14.47-7.9L40.53,142.62,136,47.12l14.14,14.17Zm96.55,18.48L97.26,121.28,118.58,100l7.52,7.52-5.57,5.57a2.63,2.63,0,0,0,0,3.69,2.51,2.51,0,0,0,3.54.14l.14-.14,5.64-5.47,6.35,6.27-5.57,5.57a2.63,2.63,0,0,0,0,3.69,2.51,2.51,0,0,0,3.54.14l.14-.14,5.57-5.49,6.35,6.27-5.57,5.57a2.63,2.63,0,0,0,0,3.69,2.51,2.51,0,0,0,3.54.14l.14-.14,5.57-5.49,6.35,6.27-5.57,5.57a2.63,2.63,0,0,0,0,3.69,2.51,2.51,0,0,0,3.54.14l.14-.14,5.57-5.49,12.54,12.54Z"/><path class="cls-2" d="M260.24,106.26h0V59H212.38V43.14h47.44V28.29H196.27V74.07h47.87V91.44H196.27v14.82ZM277.39,49.4h0V64.47h7.73v41.79H301.2V49.4Zm23.81-8.35h0V24.95H285.12V41.06Zm97.2,65.2h0V49.4H326.51v56.85H342V64.47h12.74v41.79h15.46V64.47h12.76v41.79Zm74.22,0h0V49.4h-55.2V117h16.11V106.26Zm-39.09-15h0V64.47h23.2V91.22Zm75.24,15h0V35.84H492.88v70.42Zm23.2,0h51v-15H543.9V84.11H583V49.4h-55.2v56.85Zm13.38-36.57H543.9V64h23.2v5.65Z"/><polygon class="cls-2" points="196.14 162 236.14 162.11 236.14 160 196.14 159.56 196.14 162"/><polygon class="cls-2" points="543.5 160 583.5 159.89 583.43 162 543.57 162.44 543.5 160"/><text class="cls-3" transform="translate(242.25 172.29)">在线考试系统</text></svg>